<svg width="133" height="59" viewBox="0 0 133 59" fill="none" xmlns="http://www.w3.org/2000/svg">
<path fill-rule="evenodd" clip-rule="evenodd" d="M66.4996 0.136719C75.8921 0.136719 83.5063 8.26877 83.5063 18.2999C83.5063 28.3312 75.8921 36.4632 66.4996 36.4632C57.1072 36.4632 49.4932 28.3312 49.4932 18.2999C49.4932 8.26877 57.1072 0.136719 66.4996 0.136719Z" fill="#F8BD01" stroke="#F8BD01" stroke-width="0.211654" stroke-miterlimit="22.9256"/>
<path d="M64.1403 17.2945C64.9857 15.0141 65.8356 12.7189 66.6991 10.4131C67.0066 9.59278 67.2743 8.91276 67.5023 8.35959C67.7307 7.80632 67.9633 7.3565 68.2003 7.0049C68.4373 6.64844 68.692 6.38602 68.9598 6.20784C69.2275 6.02986 69.5613 5.90302 69.9648 5.82809C70.3687 5.74842 70.856 5.72513 71.4223 5.74395C71.9886 5.76725 72.6777 5.80005 73.4812 5.84217C73.977 5.84217 74.3589 5.95473 74.6311 6.17494C74.8989 6.39533 75.1139 6.72811 75.2808 7.1691C76.4572 10.4131 77.638 13.6244 78.8276 16.8124C79.1581 17.698 82.9421 26.7909 82.4907 27.6063C82.3421 27.8783 81.8871 28.0189 81.1262 28.0189C80.5865 28.0422 80.0425 28.0469 79.4941 28.033C78.9414 28.0237 78.3974 28.0281 77.8576 28.0517C77.2752 28.0938 76.8331 27.972 76.5231 27.686C76.1915 27.3806 75.7683 26.5277 75.5749 26.0621C75.2942 25.4009 74.9383 24.4633 74.5038 23.2491C73.5669 20.6565 72.6025 18.0774 71.6857 15.4762C71.6462 15.5185 71.5716 15.6496 71.4707 15.8701C70.5024 17.8959 69.741 20.2317 68.9905 22.3398C68.5165 23.6757 68.06 25.026 67.6253 26.395C67.6055 26.4503 67.5852 26.504 67.5642 26.5566C67.967 27.6411 69.218 29.7896 67.1233 29.7896C67.0616 29.832 67 29.8461 66.9383 29.8225C66.8766 29.7991 66.8237 29.7896 66.7841 29.7896C65.559 29.8131 64.616 29.7991 63.9505 29.7566C63.2897 29.7096 62.7564 29.5402 62.351 29.239C62.0199 28.9969 61.7301 28.6323 61.4837 28.1428H61.4839C61.4724 28.1236 61.4618 28.1043 61.4524 28.0853C61.2845 27.7497 61.118 27.3906 60.9831 27.0163C60.5846 25.9081 60.1486 24.7199 59.6802 23.4498C59.6393 23.5177 59.5848 23.6232 59.5191 23.7662C59.414 23.9869 59.2997 24.2492 59.1768 24.5444C59.0537 24.8445 58.9223 25.1444 58.7907 25.4541C58.6545 25.7634 58.5579 26.0165 58.4964 26.2183C58.0451 27.4423 57.4969 29.752 56.6721 30.4879C56.3517 30.7738 55.8953 30.8956 55.2938 30.8536C54.7364 30.83 54.1745 30.8255 53.6038 30.8348C53.0375 30.8488 52.4757 30.8441 51.9183 30.8207C51.5138 30.8207 51.1931 30.7835 50.9561 30.7102H50.9559L50.9558 30.7101C50.7326 30.641 50.5837 30.5402 50.5092 30.4082C50.02 29.5523 54.3472 19.3789 54.7477 18.3094C55.055 17.4888 55.3227 16.809 55.5511 16.2558C55.7793 15.7027 56.012 15.2529 56.2491 14.9011C56.4861 14.5448 56.7405 14.282 57.0085 14.1042C57.2763 13.9259 57.6097 13.7993 58.0136 13.7244C58.4176 13.6446 58.9047 13.621 59.471 13.6399C60.0374 13.6633 60.7263 13.6963 61.5297 13.7385C62.0255 13.7385 62.4077 13.851 62.6795 14.0713C62.9473 14.2916 63.1627 14.6244 63.3295 15.065C63.5995 15.81 63.8697 16.5529 64.1403 17.2945Z" fill="black"/>
<path d="M19.2611 41.8781C19.7335 41.8643 20.0863 41.961 20.3225 42.1718C20.5588 42.3826 20.6752 42.7316 20.6752 43.2225V57.2707C20.6752 57.6128 20.6008 57.8755 20.4487 58.0516C20.2966 58.2313 20.0377 58.3212 19.6721 58.3212C19.1835 58.2901 18.6884 58.2694 18.1868 58.259C17.6852 58.2521 17.174 58.2728 16.6563 58.3212C16.2292 58.3351 15.9445 58.2417 15.7987 58.0378C15.6564 57.8373 15.5917 57.5403 15.6046 57.1496V51.4924C15.2391 51.831 14.9672 52.187 14.7827 52.5534C14.6015 52.9161 14.4268 53.2618 14.2585 53.5901C13.9544 54.1569 13.6567 54.7133 13.3687 55.2593C13.0774 55.8053 12.8186 56.3617 12.5921 56.9319C12.3462 57.4848 12.0452 57.8582 11.6893 58.0516C11.3301 58.2452 10.8771 58.3419 10.3303 58.3419C9.75099 58.373 9.29474 58.2763 8.95825 58.0482C8.62495 57.8201 8.34344 57.4469 8.11372 56.9285C7.74807 56.0646 7.36297 55.2109 6.96179 54.3643C6.55724 53.5209 6.02657 52.7158 5.37295 51.952C5.37295 52.7814 5.36968 53.6004 5.36005 54.4161C5.35351 55.2282 5.36641 56.0507 5.39558 56.88C5.42475 57.3985 5.35024 57.7821 5.16587 58.024C4.98468 58.2694 4.61902 58.373 4.07217 58.3419C3.17258 58.259 2.28925 58.259 1.422 58.3419C0.965752 58.373 0.658346 58.2833 0.506233 58.0621C0.35421 57.8443 0.279785 57.523 0.279785 57.1012C0.29596 54.8412 0.299143 52.6018 0.289511 50.3796C0.282968 48.1609 0.279785 45.9284 0.279785 43.6855C0.279785 43.2777 0.299143 42.9564 0.334763 42.7213C0.373564 42.4864 0.454436 42.3066 0.577472 42.1856C0.697236 42.0612 0.871978 41.9818 1.1016 41.9403C1.33141 41.8988 1.63554 41.8781 2.0141 41.8781C2.65481 41.8781 3.2858 41.8885 3.91034 41.9022C4.53478 41.9195 5.15932 41.9126 5.78395 41.8781C6.21103 41.847 6.55406 41.9195 6.81286 42.0992C7.07183 42.2789 7.28528 42.5555 7.45039 42.9286C7.96815 43.9689 8.48583 45.0022 9.00351 46.0251C9.52127 47.0515 10.0488 48.0745 10.5794 49.1009C10.8092 49.1009 10.9547 49.0283 11.013 48.8797C11.0745 48.7346 11.1457 48.579 11.2201 48.4167C11.6763 47.4905 12.1261 46.5539 12.5662 45.6104C13.0095 44.667 13.4496 43.7339 13.8929 42.8077C14.0611 42.4656 14.2521 42.2202 14.4623 42.075C14.676 41.9264 14.9801 41.8643 15.3782 41.8781C16.6563 41.9264 17.9506 41.9264 19.2611 41.8781Z" fill="white"/>
<path d="M29.1767 41.4634C30.306 41.4634 31.3674 41.6914 32.364 42.1477C33.3606 42.6004 34.2343 43.2294 34.9785 44.0242C35.7261 44.8225 36.3149 45.7486 36.7486 46.8062C37.1854 47.8637 37.4021 48.9833 37.4021 50.1722C37.4021 51.3922 37.1887 52.5361 36.7615 53.6004C36.3344 54.6648 35.7519 55.591 35.0142 56.379C34.2765 57.1704 33.4092 57.789 32.4093 58.2348C31.4127 58.6806 30.3417 58.8983 29.1994 58.8811C28.0894 58.8811 27.0507 58.6495 26.0832 58.1864C25.1158 57.7233 24.2712 57.0909 23.5464 56.2961C22.8248 55.4978 22.2585 54.5682 21.8476 53.5036C21.4366 52.4358 21.2295 51.2954 21.2295 50.0754C21.2295 48.8382 21.4301 47.6943 21.8346 46.6472C22.2391 45.5966 22.7924 44.6912 23.5011 43.9274C24.2097 43.1637 25.0478 42.5623 26.0153 42.1234C26.9828 41.6845 28.0377 41.4634 29.1767 41.4634ZM29.1735 53.9875C29.633 53.9875 30.0633 53.8873 30.4645 53.6834C30.8691 53.4795 31.2217 53.2031 31.526 52.854C31.8333 52.5084 32.0728 52.1006 32.2475 51.6375C32.4223 51.1744 32.5096 50.6837 32.5096 50.1653C32.5096 49.6124 32.4255 49.1009 32.2572 48.6309C32.0922 48.1609 31.8625 47.7565 31.5745 47.4144C31.2832 47.0723 30.937 46.8062 30.5326 46.6126C30.1312 46.4156 29.701 46.3119 29.2447 46.2946C28.7722 46.2946 28.3321 46.3949 27.9308 46.5989C27.5265 46.8028 27.1737 47.0826 26.8663 47.4386C26.5621 47.7946 26.3259 48.2128 26.1609 48.6931C25.9926 49.1701 25.9085 49.6884 25.9085 50.2379C25.9085 50.7424 25.9992 51.2193 26.1835 51.6755C26.3648 52.1283 26.6042 52.5257 26.9019 52.8679C27.1996 53.21 27.5427 53.4795 27.9308 53.6834C28.3192 53.8873 28.7334 53.9875 29.1735 53.9875Z" fill="white"/>
<path d="M52.8835 41.8987C53.6148 41.8503 53.9804 42.1821 53.9804 42.8974C54.0258 47.7323 54.0258 52.5221 53.9804 57.2705C53.9804 57.972 53.6471 58.3211 52.9741 58.3211C51.5276 58.2727 50.091 58.2727 48.6575 58.3211C48.2627 58.3384 47.9682 58.2243 47.7806 57.979C47.5896 57.737 47.4182 57.4675 47.2661 57.1738C46.7321 56.3133 46.2047 55.4562 45.6772 54.6026C45.153 53.749 44.6224 52.8814 44.0918 52.0037C43.9073 51.7272 43.6193 51.4992 43.2212 51.3194C43.2212 52.2802 43.2116 53.2271 43.1889 54.1636C43.1663 55.0968 43.1759 56.0299 43.2212 56.956C43.2536 57.5229 43.1663 57.9029 42.9592 58.0895C42.7554 58.2761 42.4091 58.3522 41.9205 58.3211C41.008 58.2243 40.1149 58.2243 39.2477 58.3211C38.5164 58.3384 38.1507 57.972 38.1507 57.2221C38.1054 52.5393 38.1054 47.8497 38.1507 43.1497C38.1507 42.7108 38.2607 42.379 38.484 42.1509C38.704 41.9229 39.0341 41.8261 39.4774 41.8572H39.6133C40.4061 41.8399 41.0727 41.833 41.6131 41.833C42.1535 41.833 42.6194 41.8711 43.0174 41.9436C43.4122 42.0162 43.7552 42.1337 44.0432 42.2961C44.3344 42.4585 44.6159 42.6935 44.891 43.0046C45.1628 43.3121 45.4508 43.7026 45.7453 44.176C46.043 44.646 46.3988 45.2336 46.8098 45.9317C47.0979 46.4017 47.3922 46.8717 47.6867 47.3348C47.9844 47.7979 48.2789 48.2575 48.5668 48.7136C48.6899 48.7136 48.7805 48.6791 48.8419 48.6135C48.8419 47.6872 48.8452 46.7784 48.8516 45.8833C48.8614 44.9882 48.8582 44.0759 48.8419 43.1497C48.8419 42.6935 48.9293 42.3583 49.104 42.1372C49.2787 41.9194 49.6087 41.8261 50.0974 41.8572C50.5699 41.8848 51.039 41.9021 51.5018 41.9125C51.9677 41.9194 52.4272 41.916 52.8835 41.8987Z" fill="white"/>
<path d="M67.5618 41.9192C68.0796 41.8536 68.4452 41.9365 68.6588 42.1647C68.8723 42.3892 69.0017 42.7072 69.0471 43.115C69.0924 43.5194 69.0924 43.9755 69.0471 44.48C69.0017 44.9846 68.9792 45.4789 68.9792 45.9661C68.9792 46.2771 68.8949 46.4638 68.7267 46.5294C68.5585 46.5951 68.3546 46.6262 68.1087 46.6262H64.5687C64.4619 47.2655 64.4262 47.8841 64.4554 48.4785C64.4846 49.073 64.4846 49.6536 64.4554 50.2203C64.4554 51.378 64.4554 52.5081 64.4554 53.614C64.4554 54.72 64.4716 55.8396 64.5007 56.98C64.5007 57.4673 64.41 57.8233 64.2257 58.0513C64.0445 58.2795 63.695 58.3762 63.1772 58.3452C62.6886 58.314 62.2292 58.3003 61.7956 58.3071C61.3588 58.3175 60.9445 58.3278 60.5498 58.3452C60.0612 58.3625 59.7311 58.2587 59.5564 58.041C59.3817 57.8198 59.3072 57.4743 59.3396 57.0043C59.3396 55.4906 59.3299 53.9838 59.317 52.477C59.3008 50.9737 59.2943 49.4566 59.2943 47.9291C59.2943 47.7321 59.304 47.5316 59.3266 47.3173C59.3493 47.1065 59.3008 46.9027 59.1778 46.7091C58.7215 46.7091 58.2653 46.7056 57.809 46.6953C57.3528 46.6884 56.8868 46.6919 56.4144 46.7091C56.0034 46.7403 55.6993 46.6711 55.5019 46.5018C55.3045 46.3289 55.188 46.0076 55.1589 45.5376C55.1298 44.6391 55.1233 43.9444 55.1459 43.4468C55.1718 42.9491 55.2916 42.5897 55.5116 42.372C55.7348 42.1508 56.0811 42.0195 56.5535 41.9815C57.0227 41.94 57.7088 41.9192 58.6083 41.9192H67.5618Z" fill="white"/>
<path d="M71.1681 58.2968C70.7572 58.2795 70.343 58.276 69.9224 58.283C69.505 58.2933 69.0908 58.2898 68.6798 58.2725C68.1006 58.2725 67.7544 58.1689 67.6411 57.9685C67.5247 57.7646 67.5894 57.3533 67.8353 56.7347C68.5504 54.8167 69.2591 52.9091 69.9579 51.0152C70.6602 49.1214 71.3656 47.2137 72.084 45.2957C72.3104 44.6909 72.5078 44.1898 72.6761 43.782C72.8444 43.3743 73.0158 43.0425 73.1906 42.7833C73.3653 42.5207 73.553 42.327 73.7503 42.1957C73.9478 42.0644 74.1938 41.9711 74.4914 41.9159C74.789 41.857 75.1483 41.8398 75.5657 41.8536C75.9831 41.8709 76.4912 41.8951 77.0833 41.9262C77.4489 41.9262 77.7305 42.0091 77.9311 42.1716C78.1285 42.334 78.287 42.5794 78.4101 42.9043C79.2772 45.2957 80.1476 47.663 81.0245 50.0131C81.9014 52.3631 82.7719 54.7268 83.6391 57.101C83.9432 57.8994 83.694 58.2968 82.8851 58.2968C82.8398 58.3278 82.7945 58.3382 82.7492 58.321C82.7039 58.3037 82.6651 58.2968 82.636 58.2968C81.7364 58.3141 81.044 58.3037 80.5554 58.2725C80.0699 58.238 79.6784 58.1137 79.3807 57.8925C79.083 57.6747 78.8306 57.3222 78.6268 56.8315C78.4197 56.3442 78.1576 55.653 77.8372 54.7579C77.5201 53.8801 77.1739 52.9331 76.7985 51.9171C76.4264 50.9012 76.0802 49.937 75.7598 49.028C75.7307 49.0592 75.6757 49.1559 75.6013 49.3183C75.5236 49.4808 75.4395 49.6744 75.3489 49.892C75.2583 50.1132 75.1612 50.3344 75.0641 50.5625C74.9639 50.7906 74.8926 50.9771 74.8473 51.1258C74.4817 52.1176 74.1225 53.1061 73.773 54.0874C73.4236 55.0725 73.087 56.0677 72.7667 57.0768C72.6146 57.4985 72.4205 57.8164 72.1842 58.0273C71.9481 58.238 71.6115 58.3278 71.1681 58.2968Z" fill="#F8BD01"/>
<path d="M99.2395 41.8987C99.9707 41.8503 100.336 42.1821 100.336 42.8974C100.382 47.7323 100.382 52.5221 100.336 57.2705C100.336 57.972 100.003 58.3211 99.33 58.3211C97.8836 58.2727 96.4469 58.2727 95.0135 58.3211C94.6187 58.3384 94.3242 58.2243 94.1365 57.979C93.9456 57.737 93.7741 57.4675 93.6221 57.1738C93.0882 56.3133 92.5607 55.4562 92.0333 54.6026C91.509 53.749 90.9784 52.8814 90.4477 52.0037C90.2633 51.7272 89.9753 51.4992 89.5773 51.3194C89.5773 52.2802 89.5676 53.2271 89.5449 54.1636C89.5222 55.0968 89.532 56.0299 89.5773 56.956C89.6097 57.5229 89.5222 57.9029 89.3151 58.0895C89.1113 58.2761 88.765 58.3522 88.2764 58.3211C87.3639 58.2243 86.4709 58.2243 85.6036 58.3211C84.8724 58.3384 84.5067 57.972 84.5067 57.2221C84.4613 52.5393 84.4613 47.8497 84.5067 43.1497C84.5067 42.7108 84.6167 42.379 84.8401 42.1509C85.0601 41.9229 85.3901 41.8261 85.8334 41.8572H85.9693C86.7621 41.8399 87.4286 41.833 87.969 41.833C88.5095 41.833 88.9754 41.8711 89.3735 41.9436C89.7682 42.0162 90.1112 42.1337 90.3992 42.2961C90.6903 42.4585 90.9719 42.6935 91.247 43.0046C91.5188 43.3121 91.8068 43.7026 92.1013 44.176C92.3989 44.646 92.7549 45.2336 93.1659 45.9317C93.4538 46.4017 93.7482 46.8717 94.0427 47.3348C94.3403 47.7979 94.6348 48.2575 94.9228 48.7136C95.0458 48.7136 95.1364 48.6791 95.198 48.6135C95.198 47.6872 95.2011 46.7784 95.2076 45.8833C95.2173 44.9882 95.2141 44.0759 95.198 43.1497C95.198 42.6935 95.2853 42.3583 95.4599 42.1372C95.6348 41.9194 95.9648 41.8261 96.4535 41.8572C96.9259 41.8848 97.395 41.9021 97.8578 41.9125C98.3236 41.9194 98.7833 41.916 99.2395 41.8987Z" fill="#F8BD01"/>
<path d="M124.811 41.8987C125.542 41.8503 125.908 42.1821 125.908 42.8974C125.953 47.7323 125.953 52.5221 125.908 57.2705C125.908 57.972 125.575 58.3211 124.902 58.3211C123.455 58.2727 122.019 58.2727 120.585 58.3211C120.19 58.3384 119.896 58.2243 119.708 57.979C119.517 57.737 119.346 57.4675 119.194 57.1738C118.66 56.3133 118.132 55.4562 117.605 54.6026C117.081 53.749 116.55 52.8814 116.019 52.0037C115.835 51.7272 115.547 51.4992 115.149 51.3194C115.149 52.2802 115.139 53.2271 115.117 54.1636C115.094 55.0968 115.104 56.0299 115.149 56.956C115.181 57.5229 115.094 57.9029 114.887 58.0895C114.683 58.2761 114.337 58.3522 113.848 58.3211C112.936 58.2243 112.043 58.2243 111.175 58.3211C110.444 58.3384 110.078 57.972 110.078 57.2221C110.033 52.5393 110.033 47.8497 110.078 43.1497C110.078 42.7108 110.188 42.379 110.412 42.1509C110.632 41.9229 110.962 41.8261 111.405 41.8572H111.541C112.334 41.8399 113 41.833 113.541 41.833C114.081 41.833 114.547 41.8711 114.945 41.9436C115.34 42.0162 115.683 42.1337 115.971 42.2961C116.262 42.4585 116.544 42.6935 116.819 43.0046C117.091 43.3121 117.378 43.7026 117.673 44.176C117.971 44.646 118.327 45.2336 118.738 45.9317C119.026 46.4017 119.32 46.8717 119.614 47.3348C119.912 47.7979 120.207 48.2575 120.495 48.7136C120.618 48.7136 120.708 48.6791 120.77 48.6135C120.77 47.6872 120.773 46.7784 120.779 45.8833C120.789 44.9882 120.786 44.0759 120.77 43.1497C120.77 42.6935 120.857 42.3583 121.032 42.1372C121.206 41.9194 121.537 41.8261 122.025 41.8572C122.498 41.8848 122.967 41.9021 123.429 41.9125C123.895 41.9194 124.355 41.916 124.811 41.8987Z" fill="#F8BD01"/>
<path fill-rule="evenodd" clip-rule="evenodd" d="M103.814 41.8062H106.109C106.782 41.8062 107.332 42.3937 107.332 43.1119V56.8287C107.332 57.5468 106.782 58.1344 106.109 58.1344H103.814C103.142 58.1344 102.592 57.5468 102.592 56.8287V43.1119C102.592 42.3937 103.142 41.8062 103.814 41.8062Z" fill="#F8BD01"/>
<path fill-rule="evenodd" clip-rule="evenodd" d="M129.202 41.8711H131.497C132.17 41.8711 132.72 42.4587 132.72 43.1768V56.8936C132.72 57.6117 132.17 58.1993 131.497 58.1993H129.202C128.53 58.1993 127.979 57.6117 127.979 56.8936V43.1768C127.979 42.4587 128.53 41.8711 129.202 41.8711Z" fill="#F8BD01"/>
</svg>
