<svg width="133" height="72" viewBox="0 0 133 72" fill="none" xmlns="http://www.w3.org/2000/svg">
<path d="M19.2611 41.5651C19.7335 41.5513 20.0863 41.6481 20.3225 41.8588C20.5588 42.0696 20.6752 42.4186 20.6752 42.9095V56.9577C20.6752 57.2998 20.6008 57.5625 20.4487 57.7386C20.2966 57.9184 20.0377 58.0082 19.6721 58.0082C19.1835 57.9771 18.6884 57.9564 18.1868 57.946C17.6852 57.9391 17.174 57.9598 16.6563 58.0082C16.2292 58.0221 15.9445 57.9287 15.7987 57.7248C15.6564 57.5243 15.5917 57.2273 15.6046 56.8367V51.1794C15.2391 51.518 14.9672 51.874 14.7827 52.2404C14.6015 52.6031 14.4268 52.9488 14.2585 53.2771C13.9544 53.8439 13.6567 54.4003 13.3687 54.9464C13.0774 55.4923 12.8186 56.0487 12.5921 56.6189C12.3462 57.1719 12.0452 57.5452 11.6893 57.7386C11.3301 57.9322 10.8771 58.0289 10.3303 58.0289C9.75099 58.06 9.29474 57.9633 8.95825 57.7352C8.62495 57.5071 8.34344 57.1339 8.11372 56.6155C7.74807 55.7516 7.36297 54.8979 6.96179 54.0513C6.55724 53.2079 6.02657 52.4028 5.37295 51.6391C5.37295 52.4684 5.36968 53.2874 5.36005 54.1031C5.35351 54.9152 5.36641 55.7377 5.39558 56.5671C5.42475 57.0855 5.35024 57.4691 5.16587 57.711C4.98468 57.9564 4.61902 58.06 4.07217 58.0289C3.17258 57.946 2.28925 57.946 1.422 58.0289C0.965752 58.06 0.658346 57.9703 0.506233 57.7491C0.35421 57.5313 0.279785 57.21 0.279785 56.7882C0.29596 54.5282 0.299143 52.2888 0.289511 50.0666C0.282968 47.8479 0.279785 45.6154 0.279785 43.3725C0.279785 42.9647 0.299143 42.6434 0.334763 42.4083C0.373564 42.1734 0.454436 41.9936 0.577472 41.8726C0.697236 41.7482 0.871978 41.6688 1.1016 41.6273C1.33141 41.5858 1.63554 41.5651 2.0141 41.5651C2.65481 41.5651 3.2858 41.5755 3.91034 41.5892C4.53478 41.6065 5.15932 41.5996 5.78395 41.5651C6.21103 41.534 6.55406 41.6065 6.81286 41.7863C7.07183 41.9659 7.28528 42.2425 7.45039 42.6156C7.96815 43.6559 8.48583 44.6893 9.00351 45.7121C9.52127 46.7385 10.0488 47.7615 10.5794 48.7879C10.8092 48.7879 10.9547 48.7153 11.013 48.5667C11.0745 48.4216 11.1457 48.2661 11.2201 48.1037C11.6763 47.1775 12.1261 46.2409 12.5662 45.2974C13.0095 44.354 13.4496 43.4209 13.8929 42.4947C14.0611 42.1526 14.2521 41.9072 14.4623 41.762C14.676 41.6134 14.9801 41.5513 15.3782 41.5651C16.6563 41.6134 17.9506 41.6134 19.2611 41.5651Z" fill="white"/>
<path d="M29.1767 41.1504C30.306 41.1504 31.3674 41.3785 32.364 41.8347C33.3606 42.2874 34.2343 42.9164 34.9785 43.7112C35.7261 44.5095 36.3149 45.4356 36.7486 46.4932C37.1854 47.5507 37.4021 48.6703 37.4021 49.8592C37.4021 51.0792 37.1887 52.2231 36.7615 53.2874C36.3344 54.3518 35.7519 55.2781 35.0142 56.066C34.2765 56.8574 33.4092 57.476 32.4093 57.9218C31.4127 58.3676 30.3417 58.5854 29.1994 58.5681C28.0894 58.5681 27.0507 58.3365 26.0832 57.8734C25.1158 57.4103 24.2712 56.7779 23.5464 55.9831C22.8248 55.1848 22.2585 54.2552 21.8476 53.1906C21.4366 52.1228 21.2295 50.9824 21.2295 49.7624C21.2295 48.5253 21.4301 47.3814 21.8346 46.3342C22.2391 45.2837 22.7924 44.3782 23.5011 43.6144C24.2097 42.8507 25.0478 42.2493 26.0153 41.8104C26.9828 41.3716 28.0377 41.1504 29.1767 41.1504ZM29.1735 53.6745C29.633 53.6745 30.0633 53.5743 30.4645 53.3704C30.8691 53.1665 31.2217 52.8901 31.526 52.541C31.8333 52.1954 32.0728 51.7876 32.2475 51.3245C32.4223 50.8614 32.5096 50.3707 32.5096 49.8523C32.5096 49.2994 32.4255 48.7879 32.2572 48.3179C32.0922 47.8479 31.8625 47.4435 31.5745 47.1014C31.2832 46.7593 30.937 46.4932 30.5326 46.2997C30.1312 46.1027 29.701 45.9989 29.2447 45.9816C28.7722 45.9816 28.3321 46.0819 27.9308 46.2859C27.5265 46.4898 27.1737 46.7697 26.8663 47.1256C26.5621 47.4816 26.3259 47.8998 26.1609 48.3801C25.9926 48.8571 25.9085 49.3754 25.9085 49.9249C25.9085 50.4294 25.9992 50.9063 26.1835 51.3626C26.3648 51.8153 26.6042 52.2127 26.9019 52.5549C27.1996 52.897 27.5427 53.1665 27.9308 53.3704C28.3192 53.5743 28.7334 53.6745 29.1735 53.6745Z" fill="white"/>
<path d="M52.8835 41.5857C53.6148 41.5373 53.9804 41.8691 53.9804 42.5844C54.0258 47.4193 54.0258 52.2091 53.9804 56.9575C53.9804 57.659 53.6471 58.0081 52.9741 58.0081C51.5276 57.9597 50.091 57.9597 48.6575 58.0081C48.2627 58.0254 47.9682 57.9113 47.7806 57.666C47.5896 57.4241 47.4182 57.1545 47.2661 56.8608C46.7321 56.0003 46.2047 55.1432 45.6772 54.2896C45.153 53.436 44.6224 52.5685 44.0918 51.6908C43.9073 51.4143 43.6193 51.1862 43.2212 51.0064C43.2212 51.9672 43.2116 52.9141 43.1889 53.8507C43.1663 54.7838 43.1759 55.7169 43.2212 56.643C43.2536 57.2099 43.1663 57.5899 42.9592 57.7765C42.7554 57.9632 42.4091 58.0392 41.9205 58.0081C41.008 57.9113 40.1149 57.9113 39.2477 58.0081C38.5164 58.0254 38.1507 57.659 38.1507 56.9091C38.1054 52.2264 38.1054 47.5367 38.1507 42.8367C38.1507 42.3978 38.2607 42.066 38.484 41.8379C38.704 41.6099 39.0341 41.5131 39.4774 41.5442H39.6133C40.4061 41.5269 41.0727 41.52 41.6131 41.52C42.1535 41.52 42.6194 41.5581 43.0174 41.6307C43.4122 41.7033 43.7552 41.8207 44.0432 41.9831C44.3344 42.1455 44.6159 42.3805 44.891 42.6916C45.1628 42.9991 45.4508 43.3896 45.7453 43.863C46.043 44.3331 46.3988 44.9206 46.8098 45.6187C47.0979 46.0887 47.3922 46.5588 47.6867 47.0218C47.9844 47.4849 48.2789 47.9445 48.5668 48.4006C48.6899 48.4006 48.7805 48.3661 48.8419 48.3005C48.8419 47.3742 48.8452 46.4654 48.8516 45.5703C48.8614 44.6752 48.8582 43.7629 48.8419 42.8367C48.8419 42.3805 48.9293 42.0453 49.104 41.8242C49.2787 41.6064 49.6087 41.5131 50.0974 41.5442C50.5699 41.5718 51.039 41.5891 51.5018 41.5995C51.9677 41.6064 52.4272 41.603 52.8835 41.5857Z" fill="white"/>
<path d="M67.5618 41.6062C68.0796 41.5406 68.4452 41.6235 68.6588 41.8517C68.8723 42.0763 69.0017 42.3942 69.0471 42.802C69.0924 43.2064 69.0924 43.6625 69.0471 44.167C69.0017 44.6716 68.9792 45.1659 68.9792 45.6532C68.9792 45.9641 68.8949 46.1508 68.7267 46.2164C68.5585 46.2821 68.3546 46.3132 68.1087 46.3132H64.5687C64.4619 46.9525 64.4262 47.5711 64.4554 48.1655C64.4846 48.76 64.4846 49.3406 64.4554 49.9073C64.4554 51.065 64.4554 52.1952 64.4554 53.301C64.4554 54.407 64.4716 55.5266 64.5007 56.667C64.5007 57.1543 64.41 57.5103 64.2257 57.7383C64.0445 57.9665 63.695 58.0632 63.1772 58.0322C62.6886 58.0011 62.2292 57.9873 61.7956 57.9941C61.3588 58.0046 60.9445 58.0148 60.5498 58.0322C60.0612 58.0495 59.7311 57.9457 59.5564 57.728C59.3817 57.5068 59.3072 57.1613 59.3396 56.6913C59.3396 55.1776 59.3299 53.6708 59.317 52.164C59.3008 50.6607 59.2943 49.1436 59.2943 47.6161C59.2943 47.4191 59.304 47.2186 59.3266 47.0043C59.3493 46.7936 59.3008 46.5898 59.1778 46.3961C58.7215 46.3961 58.2653 46.3927 57.809 46.3823C57.3528 46.3754 56.8868 46.3789 56.4144 46.3961C56.0034 46.4273 55.6993 46.3581 55.5019 46.1888C55.3045 46.0159 55.188 45.6946 55.1589 45.2246C55.1298 44.3261 55.1233 43.6314 55.1459 43.1338C55.1718 42.6361 55.2916 42.2767 55.5116 42.059C55.7348 41.8378 56.0811 41.7065 56.5535 41.6686C57.0227 41.627 57.7088 41.6062 58.6083 41.6062H67.5618Z" fill="white"/>
<path d="M71.1681 57.9838C70.7572 57.9665 70.343 57.963 69.9224 57.97C69.505 57.9803 69.0908 57.9768 68.6798 57.9595C68.1006 57.9595 67.7544 57.8559 67.6411 57.6555C67.5247 57.4516 67.5894 57.0403 67.8353 56.4217C68.5504 54.5038 69.2591 52.5961 69.9579 50.7022C70.6602 48.8084 71.3656 46.9007 72.084 44.9827C72.3104 44.378 72.5078 43.8768 72.6761 43.469C72.8444 43.0613 73.0158 42.7295 73.1906 42.4703C73.3653 42.2077 73.553 42.0141 73.7503 41.8828C73.9478 41.7514 74.1938 41.6581 74.4914 41.6029C74.789 41.5441 75.1483 41.5268 75.5657 41.5407C75.9831 41.5579 76.4912 41.5821 77.0833 41.6132C77.4489 41.6132 77.7305 41.6961 77.9311 41.8586C78.1285 42.0211 78.287 42.2664 78.4101 42.5913C79.2772 44.9827 80.1476 47.3501 81.0245 49.7001C81.9014 52.0501 82.7719 54.4138 83.6391 56.788C83.9432 57.5864 83.694 57.9838 82.8851 57.9838C82.8398 58.0149 82.7945 58.0252 82.7492 58.008C82.7039 57.9907 82.6651 57.9838 82.636 57.9838C81.7364 58.0011 81.044 57.9907 80.5554 57.9595C80.0699 57.925 79.6784 57.8007 79.3807 57.5795C79.083 57.3617 78.8306 57.0093 78.6268 56.5185C78.4197 56.0312 78.1576 55.34 77.8372 54.445C77.5201 53.5672 77.1739 52.6202 76.7985 51.6042C76.4264 50.5883 76.0802 49.624 75.7598 48.715C75.7307 48.7462 75.6757 48.8429 75.6013 49.0053C75.5236 49.1678 75.4395 49.3614 75.3489 49.5791C75.2583 49.8002 75.1612 50.0214 75.0641 50.2495C74.9639 50.4776 74.8926 50.6641 74.8473 50.8128C74.4817 51.8047 74.1225 52.7931 73.773 53.7744C73.4236 54.7595 73.087 55.7547 72.7667 56.7638C72.6146 57.1855 72.4205 57.5034 72.1842 57.7143C71.9481 57.925 71.6115 58.0149 71.1681 57.9838Z" fill="#F8BD01"/>
<path d="M99.2395 41.5857C99.9707 41.5373 100.336 41.8691 100.336 42.5844C100.382 47.4193 100.382 52.2091 100.336 56.9575C100.336 57.659 100.003 58.0081 99.33 58.0081C97.8836 57.9597 96.4469 57.9597 95.0135 58.0081C94.6187 58.0254 94.3242 57.9113 94.1365 57.666C93.9456 57.4241 93.7741 57.1545 93.6221 56.8608C93.0882 56.0003 92.5607 55.1432 92.0333 54.2896C91.509 53.436 90.9784 52.5685 90.4477 51.6908C90.2633 51.4143 89.9753 51.1862 89.5773 51.0064C89.5773 51.9672 89.5676 52.9141 89.5449 53.8507C89.5222 54.7838 89.532 55.7169 89.5773 56.643C89.6097 57.2099 89.5222 57.5899 89.3151 57.7765C89.1113 57.9632 88.765 58.0392 88.2764 58.0081C87.3639 57.9113 86.4709 57.9113 85.6036 58.0081C84.8724 58.0254 84.5067 57.659 84.5067 56.9091C84.4613 52.2264 84.4613 47.5367 84.5067 42.8367C84.5067 42.3978 84.6167 42.066 84.8401 41.8379C85.0601 41.6099 85.3901 41.5131 85.8334 41.5442H85.9693C86.7621 41.5269 87.4286 41.52 87.969 41.52C88.5095 41.52 88.9754 41.5581 89.3735 41.6307C89.7682 41.7033 90.1112 41.8207 90.3992 41.9831C90.6903 42.1455 90.9719 42.3805 91.247 42.6916C91.5188 42.9991 91.8068 43.3896 92.1013 43.863C92.3989 44.3331 92.7549 44.9206 93.1659 45.6187C93.4538 46.0887 93.7482 46.5588 94.0427 47.0218C94.3403 47.4849 94.6348 47.9445 94.9228 48.4006C95.0458 48.4006 95.1364 48.3661 95.198 48.3005C95.198 47.3742 95.2011 46.4654 95.2076 45.5703C95.2173 44.6752 95.2141 43.7629 95.198 42.8367C95.198 42.3805 95.2853 42.0453 95.4599 41.8242C95.6348 41.6064 95.9648 41.5131 96.4535 41.5442C96.9259 41.5718 97.395 41.5891 97.8578 41.5995C98.3236 41.6064 98.7833 41.603 99.2395 41.5857Z" fill="#F8BD01"/>
<path d="M124.811 41.5857C125.542 41.5373 125.908 41.8691 125.908 42.5844C125.953 47.4193 125.953 52.2091 125.908 56.9575C125.908 57.659 125.575 58.0081 124.902 58.0081C123.455 57.9597 122.019 57.9597 120.585 58.0081C120.19 58.0254 119.896 57.9113 119.708 57.666C119.517 57.4241 119.346 57.1545 119.194 56.8608C118.66 56.0003 118.132 55.1432 117.605 54.2896C117.081 53.436 116.55 52.5685 116.019 51.6908C115.835 51.4143 115.547 51.1862 115.149 51.0064C115.149 51.9672 115.139 52.9141 115.117 53.8507C115.094 54.7838 115.104 55.7169 115.149 56.643C115.181 57.2099 115.094 57.5899 114.887 57.7765C114.683 57.9632 114.337 58.0392 113.848 58.0081C112.936 57.9113 112.043 57.9113 111.175 58.0081C110.444 58.0254 110.078 57.659 110.078 56.9091C110.033 52.2264 110.033 47.5367 110.078 42.8367C110.078 42.3978 110.188 42.066 110.412 41.8379C110.632 41.6099 110.962 41.5131 111.405 41.5442H111.541C112.334 41.5269 113 41.52 113.541 41.52C114.081 41.52 114.547 41.5581 114.945 41.6307C115.34 41.7033 115.683 41.8207 115.971 41.9831C116.262 42.1455 116.544 42.3805 116.819 42.6916C117.091 42.9991 117.378 43.3896 117.673 43.863C117.971 44.3331 118.327 44.9206 118.738 45.6187C119.026 46.0887 119.32 46.5588 119.614 47.0218C119.912 47.4849 120.207 47.9445 120.495 48.4006C120.618 48.4006 120.708 48.3661 120.77 48.3005C120.77 47.3742 120.773 46.4654 120.779 45.5703C120.789 44.6752 120.786 43.7629 120.77 42.8367C120.77 42.3805 120.857 42.0453 121.032 41.8242C121.206 41.6064 121.537 41.5131 122.025 41.5442C122.498 41.5718 122.967 41.5891 123.429 41.5995C123.895 41.6064 124.355 41.603 124.811 41.5857Z" fill="#F8BD01"/>
<path fill-rule="evenodd" clip-rule="evenodd" d="M103.814 41.4932H106.109C106.782 41.4932 107.332 42.0807 107.332 42.7989V56.5157C107.332 57.2338 106.782 57.8214 106.109 57.8214H103.814C103.142 57.8214 102.592 57.2338 102.592 56.5157V42.7989C102.592 42.0807 103.142 41.4932 103.814 41.4932Z" fill="#F8BD01"/>
<path fill-rule="evenodd" clip-rule="evenodd" d="M129.202 41.5581H131.497C132.17 41.5581 132.72 42.1457 132.72 42.8638V56.5806C132.72 57.2987 132.17 57.8863 131.497 57.8863H129.202C128.53 57.8863 127.979 57.2987 127.979 56.5806V42.8638C127.979 42.1457 128.53 41.5581 129.202 41.5581Z" fill="#F8BD01"/>
<path fill-rule="evenodd" clip-rule="evenodd" d="M66.5001 0.136719C75.8926 0.136719 83.5067 8.26877 83.5067 18.2999C83.5067 28.3312 75.8926 36.4632 66.5001 36.4632C57.1077 36.4632 49.4937 28.3312 49.4937 18.2999C49.4937 8.26877 57.1077 0.136719 66.5001 0.136719Z" fill="#F8BD01" stroke="#F8BD01" stroke-width="0.211654" stroke-miterlimit="22.9256"/>
<path d="M64.1408 17.2945C64.9862 15.0141 65.8361 12.7189 66.6996 10.4131C67.0071 9.59278 67.2748 8.91276 67.5028 8.35959C67.7312 7.80632 67.9638 7.3565 68.2008 7.0049C68.4378 6.64844 68.6925 6.38602 68.9603 6.20784C69.228 6.02986 69.5618 5.90302 69.9653 5.82809C70.3692 5.74842 70.8565 5.72513 71.4228 5.74395C71.9891 5.76725 72.6782 5.80005 73.4817 5.84217C73.9775 5.84217 74.3594 5.95473 74.6316 6.17494C74.8994 6.39533 75.1144 6.72811 75.2813 7.1691C76.4577 10.4131 77.6385 13.6244 78.8281 16.8124C79.1585 17.698 82.9426 26.7909 82.4911 27.6063C82.3426 27.8783 81.8876 28.0189 81.1267 28.0189C80.587 28.0422 80.043 28.0469 79.4946 28.033C78.9419 28.0237 78.3979 28.0281 77.8581 28.0517C77.2757 28.0938 76.8336 27.972 76.5235 27.686C76.192 27.3806 75.7688 26.5277 75.5753 26.0621C75.2947 25.4009 74.9388 24.4633 74.5043 23.2491C73.5674 20.6565 72.6029 18.0774 71.6862 15.4762C71.6467 15.5185 71.572 15.6496 71.4712 15.8701C70.5029 17.8959 69.7415 20.2317 68.991 22.3398C68.517 23.6757 68.0605 25.026 67.6258 26.395C67.606 26.4503 67.5856 26.504 67.5647 26.5566C67.9675 27.6411 69.2185 29.7896 67.1238 29.7896C67.0621 29.832 67.0005 29.8461 66.9388 29.8225C66.8771 29.7991 66.8242 29.7896 66.7846 29.7896C65.5595 29.8131 64.6165 29.7991 63.951 29.7566C63.2902 29.7096 62.7569 29.5402 62.3515 29.239C62.0204 28.9969 61.7306 28.6323 61.4842 28.1428H61.4844C61.4728 28.1236 61.4623 28.1043 61.4529 28.0853C61.285 27.7497 61.1185 27.3906 60.9836 27.0163C60.5851 25.9081 60.1491 24.7199 59.6807 23.4498C59.6398 23.5177 59.5853 23.6232 59.5196 23.7662C59.4145 23.9869 59.3002 24.2492 59.1772 24.5444C59.0542 24.8445 58.9228 25.1444 58.7911 25.4541C58.655 25.7634 58.5583 26.0165 58.4969 26.2183C58.0456 27.4423 57.4974 29.752 56.6725 30.4879C56.3522 30.7738 55.8958 30.8956 55.2943 30.8536C54.7369 30.83 54.175 30.8255 53.6043 30.8348C53.038 30.8488 52.4762 30.8441 51.9188 30.8207C51.5143 30.8207 51.1936 30.7835 50.9566 30.7102H50.9564L50.9563 30.7101C50.733 30.641 50.5842 30.5402 50.5097 30.4082C50.0205 29.5523 54.3477 19.3789 54.7482 18.3094C55.0555 17.4888 55.3232 16.809 55.5516 16.2558C55.7798 15.7027 56.0125 15.2529 56.2496 14.9011C56.4866 14.5448 56.741 14.282 57.0089 14.1042C57.2768 13.9259 57.6102 13.7993 58.0141 13.7244C58.418 13.6446 58.9052 13.621 59.4715 13.6399C60.0379 13.6633 60.7268 13.6963 61.5302 13.7385C62.026 13.7385 62.4082 13.851 62.68 14.0713C62.9478 14.2916 63.1632 14.6244 63.33 15.065C63.6 15.81 63.8702 16.5529 64.1408 17.2945Z" fill="black"/>
<path d="M41.9082 71.7758L44.8442 63.2729H45.7955L48.7315 71.7758H47.526L45.3189 64.9157L43.1137 71.7758H41.9082ZM43.2613 69.9096V68.7759H47.4494V69.9096H43.2613Z" fill="#D2D2D2"/>
<path d="M52.103 71.8636C51.548 71.8636 51.0621 71.7319 50.6472 71.4684C50.2304 71.2049 49.9071 70.8356 49.6773 70.3606C49.4474 69.8855 49.3315 69.3287 49.3315 68.694V66.3607C49.3315 65.722 49.4474 65.1651 49.6773 64.688C49.9071 64.213 50.2304 63.8437 50.6472 63.5803C51.0621 63.3169 51.548 63.1851 52.103 63.1851C52.5628 63.1851 52.9833 63.2908 53.3646 63.5005C53.7458 63.712 54.0654 64.0054 54.3233 64.3847C54.5812 64.7619 54.755 65.205 54.8466 65.712H53.7009C53.6318 65.4385 53.5159 65.201 53.3534 64.9954C53.1907 64.7898 53.0002 64.6321 52.7814 64.5184C52.5628 64.4066 52.3366 64.3488 52.103 64.3488C51.6134 64.3488 51.221 64.5344 50.9238 64.9016C50.6248 65.2709 50.4771 65.7559 50.4771 66.3607V68.694C50.4771 69.2988 50.6248 69.7837 50.9238 70.1511C51.221 70.5163 51.6134 70.6999 52.103 70.6999C52.4488 70.6999 52.7759 70.5822 53.0823 70.3487C53.3888 70.1151 53.5963 69.7778 53.7009 69.3366H54.8466C54.755 69.8436 54.5794 70.2867 54.3196 70.664C54.0616 71.0432 53.7421 71.3366 53.3627 71.5482C52.9833 71.7578 52.5628 71.8636 52.103 71.8636Z" fill="#D2D2D2"/>
<path d="M55.3379 71.7758L58.2739 63.2729H59.2251L62.1612 71.7758H60.9557L58.7486 64.9157L56.5434 71.7758H55.3379ZM56.691 69.9096V68.7759H60.8791V69.9096H56.691Z" fill="#D2D2D2"/>
<path d="M64.1216 71.7758V70.6421H65.9232C66.5101 70.6421 66.966 70.4785 67.2875 70.1531C67.6108 69.8278 67.7734 69.3686 67.7734 68.7759V66.2729C67.7734 65.6801 67.6108 65.2211 67.2875 64.8957C66.966 64.5704 66.5101 64.4087 65.9232 64.4087H64.1216V63.2729H65.8896C66.8539 63.2729 67.5978 63.5404 68.1266 64.0714C68.6536 64.6042 68.9172 65.3528 68.9172 66.3208V68.73C68.9172 69.3727 68.7994 69.9215 68.562 70.3746C68.3247 70.8297 67.979 71.177 67.5267 71.4165C67.0744 71.6561 66.5269 71.7758 65.884 71.7758H64.1216ZM63.3647 71.7758V63.2729H64.4823V71.7758H63.3647Z" fill="#D2D2D2"/>
<path d="M70.6143 71.7758V63.2729H71.7318V71.7758H70.6143ZM71.1562 71.7758V70.6421H75.7293V71.7758H71.1562ZM71.1562 68.1212V66.9875H75.1257V68.1212H71.1562ZM71.1562 64.4087V63.2729H75.7293V64.4087H71.1562Z" fill="#D2D2D2"/>
<path d="M80.7004 68.8877L83.0383 63.2729H84.0831V71.7758H82.9936V65.4087L83.0496 65.7819L81.0891 70.5942H80.3117L78.3513 65.8996L78.4054 65.4087V71.7758H77.3159V63.2729H78.3624L80.7004 68.8877Z" fill="#D2D2D2"/>
<path d="M91.0913 63.2729L88.6674 68.3208V71.7758H87.5498V68.3208L85.124 63.2729H86.3668L88.1086 67.1093L89.8485 63.2729H91.0913Z" fill="#D2D2D2"/>
</svg>
