<svg width="35" height="37" viewBox="0 0 35 37" fill="none" xmlns="http://www.w3.org/2000/svg">
<path fill-rule="evenodd" clip-rule="evenodd" d="M17.4996 0.136719C26.8921 0.136719 34.5063 8.26877 34.5063 18.2999C34.5063 28.3312 26.8921 36.4632 17.4996 36.4632C8.1072 36.4632 0.493164 28.3312 0.493164 18.2999C0.493164 8.26877 8.1072 0.136719 17.4996 0.136719Z" fill="#F8BD01" stroke="#F8BD01" stroke-width="0.211654" stroke-miterlimit="22.9256"/>
<path d="M15.1403 17.2945C15.9857 15.0141 16.8356 12.7189 17.6991 10.4131C18.0066 9.59278 18.2743 8.91276 18.5023 8.35959C18.7307 7.80632 18.9633 7.3565 19.2003 7.0049C19.4373 6.64844 19.692 6.38602 19.9598 6.20784C20.2275 6.02986 20.5613 5.90302 20.9648 5.82809C21.3687 5.74842 21.856 5.72513 22.4223 5.74395C22.9886 5.76725 23.6777 5.80005 24.4812 5.84217C24.977 5.84217 25.3589 5.95473 25.6311 6.17494C25.8989 6.39533 26.1139 6.72811 26.2808 7.1691C27.4572 10.4131 28.638 13.6244 29.8276 16.8124C30.1581 17.698 33.9421 26.7909 33.4907 27.6063C33.3421 27.8783 32.8871 28.0189 32.1262 28.0189C31.5865 28.0422 31.0425 28.0469 30.4941 28.033C29.9414 28.0237 29.3974 28.0281 28.8576 28.0517C28.2752 28.0938 27.8331 27.972 27.5231 27.686C27.1915 27.3806 26.7683 26.5277 26.5749 26.0621C26.2942 25.4009 25.9383 24.4633 25.5038 23.2491C24.5669 20.6565 23.6025 18.0774 22.6857 15.4762C22.6462 15.5185 22.5716 15.6496 22.4707 15.8701C21.5024 17.8959 20.741 20.2317 19.9905 22.3398C19.5165 23.6757 19.06 25.026 18.6253 26.395C18.6055 26.4503 18.5852 26.504 18.5642 26.5566C18.967 27.6411 20.218 29.7896 18.1233 29.7896C18.0616 29.832 18 29.8461 17.9383 29.8225C17.8766 29.7991 17.8237 29.7896 17.7841 29.7896C16.559 29.8131 15.616 29.7991 14.9505 29.7566C14.2897 29.7096 13.7564 29.5402 13.351 29.239C13.0199 28.9969 12.7301 28.6323 12.4837 28.1428H12.4839C12.4724 28.1236 12.4618 28.1043 12.4524 28.0853C12.2845 27.7497 12.118 27.3906 11.9831 27.0163C11.5846 25.9081 11.1486 24.7199 10.6802 23.4498C10.6393 23.5177 10.5848 23.6232 10.5191 23.7662C10.414 23.9869 10.2997 24.2492 10.1768 24.5444C10.0537 24.8445 9.92233 25.1444 9.79066 25.4541C9.65454 25.7634 9.55785 26.0165 9.49643 26.2183C9.04508 27.4423 8.49687 29.752 7.67206 30.4879C7.35175 30.7738 6.89532 30.8956 6.29377 30.8536C5.73639 30.83 5.17454 30.8255 4.6038 30.8348C4.03751 30.8488 3.47568 30.8441 2.91829 30.8207C2.51384 30.8207 2.19307 30.7835 1.95608 30.7102H1.9559L1.95581 30.7101C1.73255 30.641 1.58371 30.5402 1.50919 30.4082C1.02005 29.5523 5.3472 19.3789 5.74775 18.3094C6.05497 17.4888 6.32267 16.809 6.55112 16.2558C6.77929 15.7027 7.01199 15.2529 7.24907 14.9011C7.48615 14.5448 7.74049 14.282 8.00846 14.1042C8.27634 13.9259 8.60974 13.7993 9.01365 13.7244C9.41756 13.6446 9.9047 13.621 10.471 13.6399C11.0374 13.6633 11.7263 13.6963 12.5297 13.7385C13.0255 13.7385 13.4077 13.851 13.6795 14.0713C13.9473 14.2916 14.1627 14.6244 14.3295 15.065C14.5995 15.81 14.8697 16.5529 15.1403 17.2945Z" fill="black"/>
</svg>
